HIERARCHY
ROOT SpineBase
{
  OFFSET 0.000000 0.000000 0.000000
  CHANNELS 6 Xposition Yposition Zposition Zrotation Xrotation Yrotation
  JOINT SpineMid
  {
    OFFSET 0.000000 30.245475 0.000000
    CHANNELS 3 Zrotation Xrotation Yrotation
    JOINT SpineShoulder
    {
      OFFSET -0.132141 22.520647 -0.738225
      CHANNELS 3 Zrotation Xrotation Yrotation
      JOINT Neck
      {
        OFFSET -0.114827 7.492258 -0.569252
        CHANNELS 3 Zrotation Xrotation Yrotation
        JOINT Head
        {
          OFFSET 5.003061 13.060568 -1.065191
          CHANNELS 3 Zrotation Xrotation Yrotation
          End Site
          {
            OFFSET 0 0 0
          }
        }
      }
      JOINT ShoulderLeft
      {
        OFFSET -14.860960 -2.431833 -5.103967
        CHANNELS 3 Zrotation Xrotation Yrotation
        JOINT ElbowLeft
        {
          OFFSET -7.206751 -23.808427 -2.635793
          CHANNELS 3 Zrotation Xrotation Yrotation
          JOINT WristLeft
          {
            OFFSET -1.870299 -24.209709 -6.032148
            CHANNELS 3 Zrotation Xrotation Yrotation
            JOINT HandLeft
            {
              OFFSET 1.055977 -7.035632 -1.123581
              CHANNELS 3 Zrotation Xrotation Yrotation
              JOINT HandTipLeft
              {
                OFFSET -0.895277 -6.331973 -3.060082
                CHANNELS 3 Zrotation Xrotation Yrotation
                End Site
                {
                  OFFSET 0 0 0
                }
              }
              JOINT ThumbLeft
              {
                OFFSET 3.359447 0.969674 -0.969058
                CHANNELS 3 Zrotation Xrotation Yrotation
                End Site
                {
                  OFFSET 0 0 0
                }
              }
            }
          }
        }
      }
      JOINT ShoulderRight
      {
        OFFSET 15.860269 -7.528269 4.190631
        CHANNELS 3 Zrotation Xrotation Yrotation
        JOINT ElbowRight
        {
          OFFSET -1.385330 -24.717605 -3.140684
          CHANNELS 3 Zrotation Xrotation Yrotation
          JOINT WristRight
          {
            OFFSET 2.705681 -24.555360 -1.617625
            CHANNELS 3 Zrotation Xrotation Yrotation
            JOINT HandRight
            {
              OFFSET -1.672477 -5.346444 -0.331078
              CHANNELS 3 Zrotation Xrotation Yrotation
              JOINT HandTipRight
              {
                OFFSET 0.785376 -6.502024 -1.774664
                CHANNELS 3 Zrotation Xrotation Yrotation
                End Site
                {
                  OFFSET 0 0 0
                }
              }
              JOINT ThumbRight
              {
                OFFSET -2.192024 -4.216282 -2.964247
                CHANNELS 3 Zrotation Xrotation Yrotation
                End Site
                {
                  OFFSET 0 0 0
                }
              }
            }
          }
        }
      }
    }
  }
  JOINT HipLeft
  {
    OFFSET -7.276861 2.069543 -5.286121
    CHANNELS 3 Zrotation Xrotation Yrotation
    JOINT KneeLeft
    {
      OFFSET -10.587192 -36.275872 -3.219574
      CHANNELS 3 Zrotation Xrotation Yrotation
      JOINT AnkleLeft
      {
        OFFSET -3.945296 -38.513567 8.476308
        CHANNELS 3 Zrotation Xrotation Yrotation
        JOINT FootLeft
        {
          OFFSET 2.236759 -3.609164 -13.235032
          CHANNELS 3 Zrotation Xrotation Yrotation
          End Site
          {
            OFFSET 0 0 0
          }
        }
      }
    }
  }
  JOINT HipRight
  {
    OFFSET 5.946683 -0.084197 -1.409750
    CHANNELS 3 Zrotation Xrotation Yrotation
    JOINT KneeRight
    {
      OFFSET -1.947185 -39.613292 1.479361
      CHANNELS 3 Zrotation Xrotation Yrotation
      JOINT AnkleRight
      {
        OFFSET -4.801537 -32.779248 8.089344
        CHANNELS 3 Zrotation Xrotation Yrotation
        JOINT FootRight
        {
          OFFSET 2.085615 -3.645870 -13.226249
          CHANNELS 3 Zrotation Xrotation Yrotation
          End Site
          {
            OFFSET 0 0 0
          }
        }
      }
    }
  }
}
MOTION
Frames: 8
Frame Time: 0.033333
80.441360 81.297954 392.029118 0.401215 0.100216 -15.359933 -0.360340 -0.202908 15.358944 0.789021 0.239366 0.061973 2.904832 -5.866608 2.611583 0.000000 0.000000 0.000000 1.146615 -0.803882 -0.091732 -1.936881 0.561834 0.053577 3.680882 2.729155 -0.263775 7.397299 -2.801844 -4.789441 0.000000 0.000000 0.000000 0.000000 0.000000 0.000000 -0.789287 -0.238490 -0.065264 2.542971 -4.920240 -0.600982 0.066074 15.603025 -3.183740 -11.724431 5.176927 7.137590 0.000000 0.000000 0.000000 0.000000 0.000000 0.000000 -0.360340 -0.202908 15.358944 -0.000000 0.000000 0.000000 -0.000000 0.000000 0.000000 0.000000 0.000000 0.000000 -0.360340 -0.202908 15.358944 -0.000000 0.000000 0.000000 0.926209 2.869931 -1.589341 0.000000 0.000000 0.000000
80.432581 81.266618 392.040505 0.489082 0.087635 -15.075263 0.348549 0.102815 15.103323 0.065922 0.094476 0.043485 3.133675 -6.197612 2.810927 0.000000 0.000000 0.000000 1.163533 -0.754152 -0.117853 -2.083272 0.559771 0.070967 4.108541 2.667301 -0.348521 7.119233 -2.354370 -4.884269 0.000000 0.000000 0.000000 0.000000 0.000000 0.000000 -0.918494 -0.189600 -0.074213 2.290875 -5.441666 -0.642692 1.344585 17.784108 -4.007983 -10.095854 4.418410 6.963617 0.000000 0.000000 0.000000 0.000000 0.000000 0.000000 -0.449460 -0.211819 15.074059 -0.000000 0.000000 0.000000 -0.000000 0.000000 0.000000 0.000000 0.000000 0.000000 -0.449460 -0.211819 15.074059 -0.000000 0.000000 0.000000 1.419412 0.659198 -4.648024 0.000000 0.000000 0.000000
80.425033 81.233444 392.056279 0.564913 0.077844 -14.742505 0.370984 0.089368 14.773564 0.081451 0.075799 0.048261 3.477683 -6.461446 2.998662 0.000000 0.000000 0.000000 1.164773 -0.713485 -0.137077 -2.194268 0.563451 0.082663 4.573311 2.355724 -0.466866 6.687084 -1.941086 -4.860123 0.000000 0.000000 0.000000 0.000000 0.000000 0.000000 -1.028040 -0.144265 -0.081620 2.123384 -5.604552 -0.654759 2.349528 19.125874 -4.666927 -9.381974 -1.571568 6.166488 0.000000 0.000000 0.000000 0.000000 0.000000 0.000000 -0.526510 -0.219032 14.741115 -0.000000 0.000000 0.000000 -0.000000 0.000000 0.000000 0.000000 0.000000 0.000000 -0.526510 -0.219032 14.741115 -0.000000 0.000000 0.000000 1.352251 -4.408030 -8.491359 0.000000 0.000000 0.000000
80.414264 81.201508 392.073473 0.646501 0.061853 -14.425861 0.395466 0.074253 14.460182 0.088704 0.059607 0.052688 3.715715 -6.646102 3.140590 0.000000 0.000000 0.000000 1.184986 -0.683801 -0.152899 -1.476486 0.607567 -0.129939 3.867882 1.944051 -0.323042 6.454359 -0.983993 -4.927304 0.000000 0.000000 0.000000 0.000000 0.000000 0.000000 -1.136809 -0.093160 -0.088736 1.822738 -5.763149 -0.664922 3.725847 19.848567 -5.213093 -7.001464 -3.930621 5.573707 0.000000 0.000000 0.000000 0.000000 0.000000 0.000000 -0.610712 -0.220957 14.424334 -0.000000 0.000000 0.000000 -0.000000 0.000000 0.000000 0.000000 0.000000 0.000000 -0.081584 -0.854739 14.479188 -0.353892 0.745919 -0.047583 0.109727 -12.928560 -13.194635 0.000000 0.000000 0.000000
80.408708 81.169183 392.086386 0.736987 0.047098 -14.194132 0.409540 0.062831 14.231750 0.092597 0.048977 0.056977 3.895771 -6.843759 3.275539 0.000000 0.000000 0.000000 1.179595 -0.670957 -0.163853 -1.369285 0.420003 -0.161383 4.194144 2.328475 -0.381261 6.272109 -0.788467 -5.097488 0.000000 0.000000 0.000000 0.000000 0.000000 0.000000 -1.242088 -0.054561 -0.095816 1.653998 -5.757368 -0.661844 4.765484 19.720141 -5.446207 -6.114369 -4.997193 5.182469 0.000000 0.000000 0.000000 0.000000 0.000000 0.000000 -0.702943 -0.226367 14.192440 -0.000000 0.000000 0.000000 -0.000000 0.000000 0.000000 0.000000 0.000000 0.000000 -0.174221 -0.895721 14.248895 -0.347740 0.778868 -0.048914 -5.321270 -30.252933 -21.735154 0.000000 0.000000 0.000000
80.410771 81.147781 392.098117 0.818355 0.031462 -14.062462 0.413613 0.057934 14.102821 0.093385 0.041573 0.060399 4.083252 -7.007058 3.392373 0.000000 0.000000 0.000000 1.189139 -0.662532 -0.174500 -1.285233 0.213879 -0.182584 4.606508 2.899638 -0.446871 5.820607 -0.937025 -5.121971 0.000000 0.000000 0.000000 0.000000 0.000000 0.000000 -1.327053 -0.026454 -0.101560 1.543601 -5.528320 -0.637859 5.354880 19.435140 -5.580951 -3.342906 -8.035628 4.566657 0.000000 0.000000 0.000000 0.000000 0.000000 0.000000 -0.786190 -0.229353 14.060664 -0.000000 0.000000 0.000000 -0.000000 0.000000 0.000000 0.000000 0.000000 0.000000 -0.268661 -0.918865 14.117393 -0.333756 0.794888 -0.049228 -11.859689 -42.277573 -28.059364 0.000000 0.000000 0.000000
80.424673 81.133854 392.111332 0.908925 0.008679 -13.967314 0.424340 0.054906 14.010953 0.097174 0.030166 0.064662 4.219514 -7.109194 3.480920 0.000000 0.000000 0.000000 1.162741 -0.635870 -0.187326 -1.227577 0.040352 -0.195497 4.629412 3.011316 -0.481003 5.343038 -0.808210 -4.963643 0.000000 0.000000 0.000000 0.000000 0.000000 0.000000 -1.431101 0.012931 -0.108401 1.888779 -5.571560 -0.647813 4.454861 19.618950 -5.431692 -1.211465 -8.332972 4.498424 0.000000 0.000000 0.000000 0.000000 0.000000 0.000000 -0.879962 -0.227798 13.965496 -0.000000 0.000000 0.000000 -0.000000 0.000000 0.000000 0.000000 0.000000 0.000000 -0.387432 -0.929744 14.021314 -0.307820 0.800336 -0.048693 -14.151832 -46.408940 -27.264154 0.000000 0.000000 0.000000
80.444655 81.132372 392.118392 0.980411 -0.009465 -13.976091 0.428569 0.064288 14.022228 0.100000 0.023226 0.068096 4.529495 -7.198496 3.581879 0.000000 0.000000 0.000000 1.130911 -0.657638 -0.186232 -1.146182 -0.058121 -0.222659 4.822412 3.101976 -0.537559 5.254764 0.075500 -5.217995 0.000000 0.000000 0.000000 0.000000 0.000000 0.000000 -0.630234 0.488562 -0.255683 0.590885 -5.988569 -0.489925 6.873151 17.948948 -5.429962 -3.323996 -6.371919 3.895757 0.000000 0.000000 0.000000 0.000000 0.000000 0.000000 -0.953679 -0.227591 13.974277 -0.000000 0.000000 0.000000 -0.000000 0.000000 0.000000 0.000000 0.000000 0.000000 -0.507361 -0.934990 14.027633 -0.261572 0.794464 -0.047014 -10.521727 -42.593751 -18.288402 0.000000 0.000000 0.000000
